<svg height="98" viewBox="0 0 217.95 97.7" width="218" xmlns="http://www.w3.org/2000/svg"><ellipse cx="48.98" cy="82.07" fill="#ffeea6" rx="7.07" ry="11.62" transform="matrix(.2198462 -.97553454 .97553454 .2198462 -41.84 111.82)"/><ellipse cx="171.31" cy="82.07" fill="#ffeea6" rx="11.62" ry="7.07" transform="matrix(.97553454 -.2198462 .2198462 .97553454 -13.85 39.66)"/><path d="m106.75 0h4.08a33.5 33.5 0 0 1 33.5 33.5v27a0 0 0 0 1 0 0h-71.08a0 0 0 0 1 0 0v-27a33.5 33.5 0 0 1 33.5-33.5z" fill="#115693"/><path d="m73.25 37.22h71.07a0 0 0 0 1 0 0v27a33.5 33.5 0 0 1 -33.5 33.5h-4.08a33.5 33.5 0 0 1 -33.5-33.5v-27a0 0 0 0 1 0 0z" fill="#115693"/><path d="m134.07 88.25c37.81-3.47 65.62-14.61 79.89-21.6h-209.96c14.3 6.76 41.7 17.41 78.82 21.23z" fill="#ee442b"/><path d="m214.43 55.06-.48-.23h-209.95l-.38.17a6.34 6.34 0 0 0 0 11.45l.39.19h209.99l.47-.24a6.33 6.33 0 0 0 -.04-11.34z" fill="#115693"/><path d="m110.83 43h-4.09c-17.48 0-31.84-3.77-33.49-8.6l38.75-13.68 32.29 13.66c-1.61 4.83-15.98 8.62-33.46 8.62z" fill="#115693"/><path d="m73.25 34.75c-32.25 4.51-56.25 13.91-69.25 20.08h210c-12.94-6.35-37-16.11-69.63-20.45z" fill="#ee442b"/></svg>